# xmcd CD database file
#
# Track frame offsets:
#	150
#	35680
#	51994
#	92673
#	130101
#	187131
#	237132
#	271158
#	291435
#	317624
#	328412
#
# Disc length: 4543 seconds
#
# Revision: 0
# Processed by: cddbd v1.5.1PL0 Copyright (c) Steve Scherf et al.
# Submitted via: CDex 1.51
#
DISCID=a711bd0b
DTITLE=Carla Bley - rarum: Selected Records
DYEAR=2004
DGENRE=Jazz
TTITLE0=Baseball
TTITLE1=Major
TTITLE2=End of Vienna
TTITLE3=Chicken
TTITLE4=On the stage in cages
TTITLE5=Fleur Carnivore
TTITLE6=More Brahms
TTITLE7=Walking Batteriewoman
TTITLE8=Silence
TTITLE9=Why
TTITLE10=Ictus
EXTD=YEAR: 2004
EXTT0=
EXTT1=
EXTT2=
EXTT3=
EXTT4=
EXTT5=
EXTT6=
EXTT7=
EXTT8=
EXTT9=
EXTT10=
PLAYORDER=
